<svg width="36" height="36" viewBox="0 0 36 36" fill="none" xmlns="http://www.w3.org/2000/svg">
<path fill-rule="evenodd" clip-rule="evenodd" d="M35.7902 18.122C35.7546 18.4027 35.7005 18.6808 35.6281 18.9542C32.9858 30.1972 23.6027 34.3896 19.7115 35.6692C18.613 36.1103 17.3892 36.1103 16.2907 35.6692C12.3987 34.3896 3.01415 30.1972 0.372605 18.9549C0.300225 18.6815 0.246059 18.4035 0.210472 18.1228C0.181873 17.8069 0.173188 17.4894 0.18447 17.1724C0.316776 3.06051 3.62597 0 18.0038 0C32.3816 0 35.6847 3.06051 35.8147 17.1724C35.8265 17.4891 35.8183 17.8063 35.7902 18.122ZM23.5048 12.4909C23.7834 12.7739 23.9398 13.1568 23.9398 13.556C23.9398 13.9551 23.7834 14.338 23.5048 14.6211L20.1 18.0749L23.5048 21.5287C23.7753 21.8119 23.925 22.191 23.9218 22.5846C23.9187 22.9781 23.763 23.3547 23.4881 23.6336C23.2132 23.9124 22.841 24.0713 22.4515 24.076C22.062 24.0807 21.6862 23.931 21.4048 23.6589L18.0038 20.2043L14.599 23.6581C14.3194 23.9397 13.9405 24.0975 13.5458 24.0969C13.151 24.0962 12.7726 23.9371 12.4939 23.6547C12.2153 23.3722 12.0591 22.9894 12.0597 22.5906C12.0603 22.1917 12.2178 21.8095 12.4974 21.5279L15.9022 18.0741L12.4974 14.6211C12.2178 14.3397 12.0603 13.9577 12.0595 13.559C12.0587 13.1603 12.2147 12.7776 12.4932 12.4951C12.7717 12.2126 13.1498 12.0535 13.5445 12.0527C13.9391 12.0519 14.3179 12.2095 14.5975 12.4909L18.0023 15.9446L21.407 12.4909C21.5446 12.3514 21.7081 12.2407 21.8881 12.1652C22.0681 12.0896 22.261 12.0508 22.4559 12.0508C22.6508 12.0508 22.8438 12.0896 23.0238 12.1652C23.2038 12.2407 23.3673 12.3514 23.5048 12.4909Z" fill="#FF2056"/>
</svg>
