<svg width="82" height="23" viewBox="0 0 82 23" fill="none" xmlns="http://www.w3.org/2000/svg">
<path d="M70.6122 0C66.8791 0 63.5629 1.80246 61.4879 4.58725C60.57 3.36277 59.4107 2.33018 58.0828 1.56031C57.1991 1.04858 56.2379 0.651079 55.2244 0.388363C53.7872 0.0182759 52.3887 1.11711 52.3887 2.6066C52.3887 3.65518 53.1039 4.55755 54.1152 4.82255C54.7142 4.98018 55.279 5.21549 55.8029 5.52161C57.846 6.70497 59.2217 8.92093 59.2217 11.4544C59.2217 15.233 56.1582 18.3079 52.3887 18.3079C51.7669 18.3079 51.1633 18.2234 50.5916 18.068C49.5803 17.7916 48.5076 18.2005 47.9814 19.112L47.9723 19.1303C47.2366 20.4073 47.8835 22.0522 49.3002 22.4519C50.2819 22.7284 51.3182 22.8769 52.3887 22.8769C56.1218 22.8769 59.438 21.0744 61.513 18.2873C63.6677 21.1589 67.1411 22.9774 71.0313 22.838C76.9441 22.6256 81.7659 17.803 81.9914 11.8748C82.2419 5.35941 77.0489 0.00228449 70.6122 0.00228449V0ZM71.1703 18.2531C66.9657 18.5889 63.4672 15.0799 63.802 10.8627C64.0662 7.54338 66.747 4.85454 70.0565 4.58954C74.261 4.25372 77.7595 7.76269 77.4247 11.9799C77.1605 15.2992 74.4797 17.9881 71.1703 18.2531Z" fill="#2A9C8E"/>
<path d="M11.5295 0.0321172C8.91247 0.000134327 6.4936 0.854533 4.55531 2.31661C1.78796 4.40006 0 7.71713 0 11.4546V20.5925C0 21.8535 1.02039 22.877 2.27766 22.877C3.53492 22.877 4.55531 21.8535 4.55531 20.5925C6.45943 22.0272 8.82592 22.877 11.3883 22.877C17.6769 22.877 22.7766 17.762 22.7766 11.4546C22.7766 5.14252 17.8227 0.10979 11.5295 0.0321172ZM11.3883 18.308C7.62104 18.308 4.55531 15.2331 4.55531 11.4546C4.55531 7.67601 7.62104 4.60109 11.3883 4.60109C15.1555 4.60109 18.2213 7.67601 18.2213 11.4546C18.2213 15.2331 15.1555 18.308 11.3883 18.308Z" fill="#2A9C8E"/>
<path d="M45.5536 0.0319824H27.3323C26.0744 0.0319824 25.0547 1.05478 25.0547 2.31647C25.0547 3.57816 26.0744 4.60096 27.3323 4.60096H45.5536C46.8115 4.60096 47.8313 3.57816 47.8313 2.31647C47.8313 1.05478 46.8115 0.0319824 45.5536 0.0319824Z" fill="#2A9C8E"/>
<path d="M47.505 14.2277C44.9312 25.5428 27.9513 25.5382 25.3776 14.2277C25.0518 12.7931 26.1337 11.4224 27.6005 11.4224C28.6597 11.4224 29.573 12.1557 29.819 13.1883C31.4133 19.8818 41.4646 19.8795 43.0613 13.1883C43.3073 12.1557 44.2206 11.4224 45.2797 11.4224C46.7488 11.4224 47.8284 12.7931 47.5027 14.2277H47.505Z" fill="#FE2056"/>
</svg>
